<?xml version="1.0" encoding="UTF-8"?>
<svg version="1.1" viewBox="0 0 862 222" xmlns="http://www.w3.org/2000/svg" xmlns:cc="http://creativecommons.org/ns#" xmlns:dc="http://purl.org/dc/elements/1.1/" xmlns:rdf="http://www.w3.org/1999/02/22-rdf-syntax-ns#">
<title>GeoTrust</title>
<desc>A certificate authority now owned by DigiCert</desc>
 <metadata>
  <rdf:RDF>
    <dc:format>image/svg+xml</dc:format>
    <dc:type rdf:resource="http://purl.org/dc/dcmitype/StillImage"/>
    <dc:title/>
  </rdf:RDF>
 </metadata>
 <defs>
  <style>.a{fill:#5e6c75;}.b,.d{fill:#0174c3;}.b,.c{fill-rule:evenodd;}.c{fill:#f26f28;}.e{isolation:isolate;}.f{fill:#707e86;}</style>
 </defs>
 <path class="a" d="m281 122q-18.8 0-32.2-7.25a47.2 47.2 0 0 1-20.1-20.3q-6.69-13-6.69-30.6 0-17.9 7.57-32.1a55.3 55.3 0 0 1 21.3-22.2q13.8-8 31.4-8 22.7 0 38.4 11.7l-6.16 10.6q-13.9-9.47-31.9-9.47a44 44 0 0 0-23.5 6.32 41.9 41.9 0 0 0-15.7 17.4 55.7 55.7 0 0 0-5.48 25q0 21 11.2 33.4t32.5 12.4q14.5 0 25.5-4.16v-33h-29.5v-13h44.7v54.6q-18.6 8.5-41.3 8.5z"/>
 <path class="a" d="m379 122q-19.6 0-31.2-11.7t-11.5-30.9q0-19 11.1-31.2t29.4-12.3q11.5 0 19.7 5.36a32.2 32.2 0 0 1 12.2 14.6 53.7 53.7 0 0 1 4 21.4c0 1-0.08 2.32-0.24 3.92h-60.9q0.24 13.8 7.93 21.3t20.3 7.48a40.5 40.5 0 0 0 26.1-9.1l4.41 10.9q-13.2 10.2-31.3 10.2zm-27.1-50.8h47.2q-0.81-11.3-6.57-17.4t-15.4-6.09a23.9 23.9 0 0 0-16.9 6.25q-6.76 6.24-8.37 17.2z"/>
 <path class="a" d="m464 122q-20 0-31.2-11.8t-11.2-30.9q0-19.4 11.3-31.4t31.3-11.9q19.9 0 30.9 11.9t11 31.4q0 19.1-11.2 30.9t-30.9 11.9zm0-12q13 0 19.8-8.4t6.85-22.4q0-14.2-6.93-22.7t-19.8-8.53q-13 0-20 8.53t-7 22.7q0 13.9 6.93 22.4t20.1 8.38z"/>
 <path class="a" d="m533 120v-104h-37.2v-12.9h90v12.9h-37.5v104z"/>
 <path class="a" d="m586 120v-62c0-1.81-0.1-4.4-0.28-7.77s-0.36-6.27-0.52-8.72l-0.25-3.69h15.6l0.16 12.8q7.46-14.7 22-14.7a33.8 33.8 0 0 1 8.32 1l-0.08 13a34.7 34.7 0 0 0-9-1.28q-9.45 0-15.2 6.61t-5.77 19v45.8z"/>
 <path class="a" d="m672 122q-15.8 0-23.7-9t-7.92-24.2v-50.8h14.6v50.8q0 10.6 5 15.9t14.5 5.33q10.8 0 16.9-6.17t6.1-15.9v-49.9h14.7v61.8q0 11 0.72 20.4h-15l-0.4-13.2a30.8 30.8 0 0 1-9.77 10.7q-6.28 4.38-15.8 4.38z"/>
 <path class="a" d="m757 122a52.3 52.3 0 0 1-31.4-9.93l4.08-11a49.9 49.9 0 0 0 11.6 6.08 40 40 0 0 0 14.5 2.73q16.3 0 16.3-12a8.46 8.46 0 0 0-3.69-7.53q-3.67-2.47-14.3-6.08l-7.05-2.39q-4.08-1.44-6.93-2.73a37.1 37.1 0 0 1-5.74-3.27 20.2 20.2 0 0 1-4.65-4.24 18.6 18.6 0 0 1-2.84-5.53 23 23 0 0 1-1.08-7.33 21.4 21.4 0 0 1 2.44-10.4 18.5 18.5 0 0 1 6.69-7.12 33.9 33.9 0 0 1 9.44-3.87 44.3 44.3 0 0 1 11-1.32q16.3 0 27.4 7.12l-4.08 10.6a45.5 45.5 0 0 0-21.6-5.77q-7.92 0-12.2 2.73a8.57 8.57 0 0 0-4.32 7.66c0 3 0.86 5.19 2.6 6.61s5.19 3.06 10.4 4.92c4.67 1.55 7.42 2.48 8.25 2.81 3.36 1.17 6 2.19 8.09 3a51.7 51.7 0 0 1 6.52 3.4 20.9 20.9 0 0 1 5.37 4.45 19.8 19.8 0 0 1 3.12 5.81 23.5 23.5 0 0 1 1.24 7.88 25.2 25.2 0 0 1-2.48 11.5 19.3 19.3 0 0 1-6.73 7.69 32.2 32.2 0 0 1-9.21 4.12 39.9 39.9 0 0 1-10.6 1.38z"/>
 <path class="a" d="m842 120h-6.8q-17.5-0.17-23.9-6.25t-6.44-22.2v-43.9h-15.7v-9.81h16.1v-21.1l14.4-4.25v25.4h22.3v9.81h-22.3v44.7a34.1 34.1 0 0 0 0.6 7.13 13.2 13.2 0 0 0 1.88 4.6 7.44 7.44 0 0 0 4.09 2.76 31.7 31.7 0 0 0 6.32 1.24c2.35 0.24 5.52 0.36 9.53 0.36z"/>
 <path class="b" d="m74.5 39c16.2-11 33.5-15.3 47.8-13.2v-25.8h-122v123h41.8a25.6 25.6 0 0 1-1.38-2.65c-11.6-24.4 3.66-61 34.1-81.8z"/>
 <path class="c" d="m122 39.9a58.4 58.4 0 0 0-57.4 69.1c1.46 6.31 4.82 8.27 7.92 9.6a14.2 14.2 0 0 0 3.62 1 30.9 30.9 0 0 0 18.7-4.85c8.27-5.15 14.4-13.5 17.7-23.1-10.2 1.21-20.2 2.74-29.7 4.57l0.18-18.3 65.6-4.38-0.46 61.9-19.8 1.34v-0.09c0.1-0.65 0.2-1.31 0.3-1.94 0.77-5.2 1.42-10.5 2-15.9 0.3-3.11 0.58-6.21 0.8-9.35a68 68 0 0 1-8.54 9.26 70.6 70.6 0 0 1-9.65 7.3 68.7 68.7 0 0 1-6.38 3.58 71.1 71.1 0 0 1-13.6 5.1c-3.74 0.95-10.3 1.41-15.5 1.61a58.4 58.4 0 1 0 44.2-96.5z"/>
 <path class="a" d="m856 109a5.61 5.61 0 1 0 5.6 5.62 5.59 5.59 0 0 0-5.57-5.61m0 10.1a4.51 4.51 0 1 1 4.5-4.52 4.49 4.49 0 0 1-4.5 4.5"/>
 <path class="a" d="M854.27,117.85v-6.19h1.9a3.43,3.43,0,0,1,1.15.14,1.47,1.47,0,0,1,.77.62,2,2,0,0,1,.28,1,1.89,1.89,0,0,1-.3,1.06,1.59,1.59,0,0,1-.82.62h0a1.73,1.73,0,0,1,.19.28l1.31,2.4h-1l-1.3-2.46h-1.33v2.46Zm.87-3.22h1.25a1,1,0,0,0,.8-.3,1.18,1.18,0,0,0,.29-.82,1,1,0,0,0-.49-1,1.91,1.91,0,0,0-.85-.14h-1Z"/>
 <path class="d" d="m651 189q0-7.81 4.17-12.5a13.6 13.6 0 0 1 10.7-4.67 14.6 14.6 0 0 1 4 0.52 9.23 9.23 0 0 1 2.9 1.3 20.1 20.1 0 0 1 1.89 1.56 7 7 0 0 1 1.13 1.3l0.26 0.52h0.13a18.1 18.1 0 0 1-0.13-2.21v-15.3h6.31v45.9h-6v-3.12l0.06-2.21h-0.13c-0.08 0.17-0.2 0.39-0.35 0.65a14.4 14.4 0 0 1-1.11 1.46 10.2 10.2 0 0 1-2 1.89 11.4 11.4 0 0 1-3.09 1.46 13.4 13.4 0 0 1-4.22 0.65 13 13 0 0 1-10.6-4.75q-3.97-4.74-3.98-12.5zm6.44 0a13.4 13.4 0 0 0 2.57 8.55 8.2 8.2 0 0 0 6.73 3.22 8.84 8.84 0 0 0 6.77-3q2.73-3 2.73-8.88a14 14 0 0 0-2.44-8.23 7.92 7.92 0 0 0-6.86-3.48 8.61 8.61 0 0 0-6.77 3.16c-1.82 2.13-2.73 5.01-2.73 8.66z"/>
 <path class="d" d="m688 166v-6.44h6.37v6.44zm0.06 39.5v-32.9h6.31v32.9z"/>
 <path class="d" d="m704 211a18.7 18.7 0 0 0 9 2.21 11.9 11.9 0 0 0 7.55-2.25c1.9-1.49 2.86-3.82 2.86-7v-2.41l0.06-2.08h-0.13q-3.06 5.15-9.75 5.14a13.2 13.2 0 0 1-10.7-4.78 18.2 18.2 0 0 1-4-12.1q0-7.29 3.83-11.9a13 13 0 0 1 10.6-4.53 16.2 16.2 0 0 1 4.1 0.49 9.84 9.84 0 0 1 3 1.23 15 15 0 0 1 1.89 1.47 5 5 0 0 1 1 1.23l0.32 0.46h0.13a8.39 8.39 0 0 1-0.06-1v-3.06h6v31.6a16 16 0 0 1-1.4 6.89 11.8 11.8 0 0 1-3.81 4.71 17.3 17.3 0 0 1-5.27 2.57 21 21 0 0 1-6.13 0.9 24.4 24.4 0 0 1-11.1-2.82zm10.9-11.8a8.14 8.14 0 0 0 6.28-2.67c1.62-1.78 2.44-4.66 2.44-8.65q0-11.1-9.3-11.1a8.06 8.06 0 0 0-6.6 2.9c-1.59 1.93-2.38 4.58-2.38 8a12.8 12.8 0 0 0 2.57 8.35 8.51 8.51 0 0 0 7 3.13z"/>
 <path class="d" d="m735 166v-6.44h6.37v6.44zm0.11 39.5v-32.9h6.31v32.9z"/>
 <path class="d" d="m746 189a16.6 16.6 0 0 1 5-12.3 17.2 17.2 0 0 1 12.6-4.89 18.4 18.4 0 0 1 6.73 1.2 13.9 13.9 0 0 1 4.39 2.44l1.24 1.17-3 4.43a12.4 12.4 0 0 0-1.14-1 13.3 13.3 0 0 0-3.12-1.69 12 12 0 0 0-4.85-1.05 11 11 0 0 0-8.19 3.32 11.5 11.5 0 0 0-3.25 8.39 11.7 11.7 0 0 0 3.28 8.46 11.2 11.2 0 0 0 8.36 3.38 13.1 13.1 0 0 0 5.27-1.11 12.8 12.8 0 0 0 3.7-2.21l1.17-1.1 2.54 4.61-0.55 0.56a16.2 16.2 0 0 1-1.6 1.27 17.5 17.5 0 0 1-2.66 1.59 21.9 21.9 0 0 1-3.68 1.27 18.2 18.2 0 0 1-4.65 0.58 17.2 17.2 0 0 1-12.7-4.88 16.6 16.6 0 0 1-4.91-12.4z"/>
 <path class="d" d="m777 189q0-7.74 4.65-12.5a15.8 15.8 0 0 1 11.8-4.7c4.46 0 8 1.45 10.5 4.36a16.3 16.3 0 0 1 3.77 11.1l-0.24 2.68h-24a10.8 10.8 0 0 0 3.48 8 11.4 11.4 0 0 0 7.83 2.83 13.4 13.4 0 0 0 5-1 15.9 15.9 0 0 0 3.61-1.88l1.17-1 2.6 4.62a14.9 14.9 0 0 1-1.56 1.3 21.8 21.8 0 0 1-4.36 2.08 18.6 18.6 0 0 1-6.83 1.3 16.8 16.8 0 0 1-17.4-16v-1.18zm6.7-3.84h17.6a8.61 8.61 0 0 0-2.37-6.24 7.71 7.71 0 0 0-5.56-2.15 9.58 9.58 0 0 0-6.34 2.21 9.83 9.83 0 0 0-3.29 6.18z"/>
 <path class="d" d="m813 205v-32.9h6.11v5.71l-0.13 2.47h0.13a13.3 13.3 0 0 1 3.94-6.18 9.57 9.57 0 0 1 6.47-2.41l1.63 0.13v6.25a8 8 0 0 0-1.82-0.2 8.59 8.59 0 0 0-5.6 2.08 11.5 11.5 0 0 0-3.64 5.66 20.1 20.1 0 0 0-0.78 5.92v13.5z"/>
 <path class="d" d="m839 193v-15.4h-4.3v-5.07h4.49v-9.5h6.11v9.5h7.94v5.07h-7.94v14.6a9.45 9.45 0 0 0 0.52 3.29 6.22 6.22 0 0 0 1.27 2.18 5.54 5.54 0 0 0 1.76 1.23 6.92 6.92 0 0 0 1.82 0.59 10.2 10.2 0 0 0 1.66 0.13l1.49-0.13v5.59a14.8 14.8 0 0 1-2.21 0.13 23.1 23.1 0 0 1-3-0.19 12.8 12.8 0 0 1-3.25-1 10.3 10.3 0 0 1-3.16-2 10 10 0 0 1-2.27-3.61 14.5 14.5 0 0 1-0.93-5.49z"/>
 <path class="d" d="m857 159a4.77 4.77 0 1 0 4.8 4.8 4.76 4.76 0 0 0-4.75-4.77m0 8.6a3.84 3.84 0 1 1 3.82-3.86 3.83 3.83 0 0 1-3.82 3.83"/>
 <path class="d" d="M855.55,166.56v-5.27h1.61a3.05,3.05,0,0,1,1,.12,1.31,1.31,0,0,1,.65.53,1.66,1.66,0,0,1,.23.9,1.58,1.58,0,0,1-.25.89,1.26,1.26,0,0,1-.69.53h0a1.14,1.14,0,0,1,.15.23l1.12,2h-.83l-1.11-2.1h-1.14v2.17Zm.74-2.74h1.06a.91.91,0,0,0,.68-.26,1,1,0,0,0,.25-.69.86.86,0,0,0-.42-.82,1.61,1.61,0,0,0-.72-.12h-.85Z"/>
 <g class="e">
  <g class="e">
   <path class="f" d="m351 190q0 7.41-3.38 11.9a10.9 10.9 0 0 1-9.18 4.53q-5.91 0-9.29-3.75v15.7h-5.55v-45h5.07l0.27 3.59a11.4 11.4 0 0 1 9.41-4.19 11.1 11.1 0 0 1 9.25 4.4q3.41 4.41 3.4 12.3zm-5.54-0.63q0-5.49-2.34-8.67a7.54 7.54 0 0 0-6.42-3.18 8.13 8.13 0 0 0-7.55 4.47v15.5a8.15 8.15 0 0 0 7.61 4.44 7.49 7.49 0 0 0 6.34-3.16q2.36-3.16 2.36-9.4z"/>
   <path class="f" d="m356 189a19.2 19.2 0 0 1 1.88-8.58 13.9 13.9 0 0 1 5.21-5.87 14.2 14.2 0 0 1 7.63-2.07 13.7 13.7 0 0 1 10.7 4.52q4.1 4.59 4.1 12.2v0.39a19.3 19.3 0 0 1-1.82 8.5 13.8 13.8 0 0 1-5.18 5.9 14.4 14.4 0 0 1-7.76 2.1 13.7 13.7 0 0 1-10.7-4.59q-4.08-4.59-4.09-12.1zm5.58 0.66a13.8 13.8 0 0 0 2.5 8.66 8.49 8.49 0 0 0 13.4 0q2.49-3.31 2.49-9.28a13.8 13.8 0 0 0-2.53-8.65 8.07 8.07 0 0 0-6.72-3.39 8 8 0 0 0-6.62 3.27q-2.54 3.27-2.54 9.36z"/>
   <path class="f" d="m421 198 6.24-24.8h5.54l-9.44 32.4h-4.5l-7.88-24.6-7.68 24.6h-4.5l-9.41-32.4h5.51l6.39 24.3 7.56-24.3h4.46z"/>
   <path class="f" d="m452 206a14.2 14.2 0 0 1-10.7-4.33q-4.14-4.33-4.14-11.6v-1a19.5 19.5 0 0 1 1.85-8.62 14.4 14.4 0 0 1 5.15-5.94 13 13 0 0 1 7.18-2.14q6.33 0 9.84 4.16t3.49 11.9v2.31h-22a11.5 11.5 0 0 0 2.8 7.75 8.82 8.82 0 0 0 6.83 2.95 9.65 9.65 0 0 0 5-1.2 12.5 12.5 0 0 0 3.57-3.18l3.39 2.64q-4.07 6.27-12.2 6.27zm-0.69-29.1a7.4 7.4 0 0 0-5.63 2.45 11.9 11.9 0 0 0-2.82 6.85h16.2v-0.42a10.6 10.6 0 0 0-2.28-6.55 7 7 0 0 0-5.52-2.33z"/>
   <path class="f" d="m486 178a16.6 16.6 0 0 0-2.73-0.21q-5.46 0-7.41 4.65v23h-5.54v-32.4h5.4l0.09 3.74a8.63 8.63 0 0 1 7.73-4.34 5.67 5.67 0 0 1 2.46 0.42z"/>
   <path class="f" d="m504 206a14.1 14.1 0 0 1-10.7-4.33q-4.14-4.33-4.14-11.6v-1a19.5 19.5 0 0 1 1.84-8.62 14.4 14.4 0 0 1 5.16-5.94 13 13 0 0 1 7.18-2.14q6.33 0 9.84 4.16t3.51 11.9v2.31h-22a11.5 11.5 0 0 0 2.8 7.75 8.8 8.8 0 0 0 6.82 2.95 9.67 9.67 0 0 0 5-1.2 12.5 12.5 0 0 0 3.57-3.18l3.39 2.64q-4.08 6.25-12.2 6.25zm-0.69-29.1a7.41 7.41 0 0 0-5.64 2.45 11.9 11.9 0 0 0-2.81 6.85h16.2v-0.42a10.6 10.6 0 0 0-2.28-6.55 7 7 0 0 0-5.52-2.33z"/>
   <path class="f" d="m521 189q0-7.47 3.54-12a12 12 0 0 1 18.3-0.65v-16.9h5.55v46.1h-5.1l-0.27-3.49a11.3 11.3 0 0 1-9.26 4.08 11.1 11.1 0 0 1-9.19-4.62q-3.55-4.62-3.56-12zm5.55 0.63c0 3.68 0.76 6.55 2.28 8.63a7.37 7.37 0 0 0 6.3 3.12 8.09 8.09 0 0 0 7.7-4.74v-14.9a8.15 8.15 0 0 0-7.64-4.59 7.41 7.41 0 0 0-6.36 3.15q-2.28 3.15-2.28 9.33z"/>
   <path class="f" d="m599 190q0 7.44-3.41 12a10.9 10.9 0 0 1-9.18 4.51q-6.15 0-9.5-4.35l-0.27 3.75h-5.1v-46.1h5.55v17.2a11.2 11.2 0 0 1 9.26-4.16 11 11 0 0 1 9.28 4.46q3.38 4.47 3.37 12.2zm-5.54-0.63q0-5.67-2.19-8.76a7.25 7.25 0 0 0-6.3-3.09 8.13 8.13 0 0 0-7.88 5.1v14a8.36 8.36 0 0 0 7.94 5.09 7.21 7.21 0 0 0 6.21-3.09q2.24-3.03 2.24-9.25z"/>
   <path class="f" d="m616 197 7.56-24.3h5.94l-13 37.4q-3 8.1-9.62 8.09l-1.05-0.09-2.07-0.39v-4.49l1.5 0.12a7.37 7.37 0 0 0 4.39-1.14 8.25 8.25 0 0 0 2.59-4.17l1.23-3.3-11.6-32.1h6.06z"/>
  </g>
 </g>
</svg>
